<svg width="147" height="60" viewBox="0 0 147 60" fill="none" xmlns="http://www.w3.org/2000/svg"><g id="logo 1" clip-path="url(#clip0_211_2)"><g id="clip" style="transform-origin: center; transform-box: fill-box; animation: wave 4s linear infinite alternate;"><path id="Path 1" fill-rule="evenodd" clip-rule="evenodd" d="M38.565 0.0529973C33.4377 0.405166 28.3514 1.20826 23.365 2.45299C17.108 4.03599 10.165 6.87098 6.45801 9.37398C4.1397 10.9269 2.18745 12.9662 0.737006 15.35C0.132455 16.484 -0.125234 17.7707 -0.00399095 19.05C-0.00399095 21.961 0.762015 23.494 3.59602 26.303C5.97102 28.703 8.47401 30.517 15.114 34.68C17.719 36.34 19.914 37.745 19.967 37.796C19.4179 38.2128 18.8168 38.5564 18.179 38.818C13.352 41.142 10.798 44.871 11.179 49.034C11.3041 50.034 11.1903 51.0495 10.847 51.997C9.54701 55.777 11 58.612 14.806 59.71C17.4366 60.156 20.1306 60.0604 22.723 59.429C27.575 58.152 31.917 55.036 32.964 52.048C33.347 50.975 33.577 50.669 34.215 50.49C36.13 49.903 36.054 49.877 36.36 51.537C36.692 53.504 37.101 54.037 37.841 53.58C38.096 53.427 38.041 53.146 37.662 52.38C37.3755 51.8054 37.202 51.1811 37.151 50.541C37.151 49.8 37.251 49.698 38.121 49.441C39.602 49.032 57.121 44.716 60.136 44.027L62.818 43.414L63.891 44.231C64.5309 44.7633 65.2747 45.1563 66.075 45.385C66.8753 45.6136 67.7145 45.6729 68.539 45.559C70.991 45.431 72.83 44.459 75.179 42.086C76.686 40.554 77.299 40.119 78.116 39.966C78.703 39.838 80.823 39.404 82.866 38.966C94.972 36.438 117.396 32.198 117.881 32.377C117.981 32.428 117.781 32.939 117.396 33.526C117.213 33.8793 116.952 34.1868 116.634 34.4255C116.316 34.6643 115.947 34.8282 115.557 34.905C114.918 35.058 113.667 35.39 112.748 35.646C111.829 35.902 110.117 36.361 108.917 36.668C107.717 36.975 105.597 37.562 104.192 37.945C102.787 38.328 100.31 39.018 98.701 39.452C90.554 41.652 69.407 47.752 62.665 49.821C52.628 52.911 48.133 54.521 48.133 55.057C48.133 55.44 50.1 55.363 51.581 54.929C52.296 54.729 54.876 53.984 57.327 53.269C67.7689 50.2408 78.3662 47.7769 89.073 45.888C95.356 44.866 98.982 44.381 104.448 43.845C112.723 43.002 115.148 42.926 131.392 42.926C140.586 42.926 147.252 42.849 146.205 42.773C127.561 41.4105 108.825 41.9839 90.299 44.484C85.699 45.097 83.914 45.174 86.187 44.637C86.825 44.509 88.613 44.05 90.146 43.615C91.704 43.206 94.513 42.466 96.403 41.955C98.293 41.444 101.358 40.655 103.171 40.142C105.01 39.657 107.64 38.942 109.045 38.584C110.45 38.226 112.445 37.69 113.489 37.409C114.132 37.2133 114.79 37.0682 115.456 36.975C115.434 37.3563 115.338 37.7297 115.175 38.075C114.639 39.556 114.69 40.833 115.303 41.395C116.403 42.395 117.908 41.063 119.875 37.411L120.922 35.47L126.117 33.995C128.952 33.203 131.634 32.386 132.068 32.207C132.758 31.926 132.936 31.926 133.268 32.258C134.06 33.05 135.081 31.926 137.457 27.61C138.455 25.9483 139.292 24.195 139.957 22.374C139.906 22.374 139.14 23.728 138.271 25.362C135.538 30.495 134.031 32.615 133.623 31.9C133.52 31.027 133.494 30.1466 133.546 29.269C133.623 26.409 134.746 21.811 137.402 13.69C139.062 8.63299 139.266 7.816 138.858 7.816C138.194 7.816 136.917 10.116 134.058 16.499C132.245 20.509 131.581 21.735 131.223 21.76C130.769 21.7153 130.311 21.8084 129.911 22.027C129.51 22.2456 129.184 22.5798 128.976 22.986C128.748 23.4597 128.345 23.8262 127.852 24.008C127.017 24.2934 126.219 24.6792 125.477 25.157C124.891 25.537 124.286 25.8865 123.664 26.204C123.641 25.6307 123.684 25.0566 123.792 24.493C124.073 22.552 123.92 21.607 123.332 21.607C122.723 21.8321 122.166 22.1799 121.697 22.629C120.982 23.242 120.397 23.548 120.297 23.395C119.914 22.756 118.586 23.14 117.539 24.187C116.001 25.5719 114.167 26.5855 112.176 27.15C111.027 27.329 110.363 26.844 109.776 25.362C109.367 24.34 108.729 24.136 108.167 24.8C107.886 25.158 107.809 25.132 107.477 24.672C107.32 24.4208 107.073 24.2383 106.787 24.161C106.225 24.161 105.05 25.489 104.514 26.715C103.62 28.733 101.781 31.287 101.114 31.465C100.87 31.5652 100.598 31.5744 100.348 31.491C99.8763 30.2804 99.6674 28.9834 99.735 27.686C99.7986 27.0509 99.702 26.4101 99.454 25.822C99.326 25.722 98.739 25.975 98.203 26.384C95.751 28.121 95.547 28.248 95.317 28.019C95.2568 27.196 95.3699 26.3696 95.649 25.593C95.8993 24.7357 96.0536 23.8533 96.109 22.962C96.032 22.579 95.981 22.579 95.573 23.013C95.318 23.243 94.015 25.005 92.661 26.895C91.9025 28.0701 91.0483 29.1805 90.107 30.215C90.1316 29.6334 90.2349 29.0578 90.414 28.504C90.623 27.8077 90.7348 27.0859 90.746 26.359C90.669 25.874 90.618 25.899 90.235 26.614C89.5606 27.7123 89.2066 28.9772 89.213 30.266C89.468 32.054 90.107 31.543 92.891 27.406C93.5428 26.3722 94.2506 25.3747 95.011 24.418C94.9764 24.862 94.8819 25.2993 94.73 25.718C93.811 28.834 94.83 29.6 97.284 27.633C97.7751 27.2053 98.2958 26.8126 98.842 26.458C98.9722 27.0618 99.0236 27.68 98.995 28.297C98.9766 29.2257 99.0794 30.1529 99.301 31.055C99.556 31.796 99.735 31.974 100.476 32.026C101.476 32.126 102.162 31.592 103.336 29.753C103.872 28.91 104.23 28.578 104.485 28.68C104.74 28.757 105.251 28.45 105.864 27.863C106.4 27.352 106.964 26.995 107.115 27.071C107.268 27.171 107.396 27.097 107.396 26.892C107.396 26.381 108.418 25.13 108.724 25.232C109.007 25.4898 109.204 25.829 109.286 26.203C109.848 27.991 111.738 28.118 114.649 26.612L116.207 25.795L116.107 26.895C116.03 27.865 116.081 27.995 116.592 27.995C117.303 27.7425 117.943 27.3219 118.456 26.769C118.99 26.2279 119.591 25.7574 120.244 25.369C120.366 25.3102 120.47 25.2202 120.547 25.1082C120.623 24.9962 120.668 24.8661 120.678 24.731C121.221 23.6727 122.031 22.7747 123.028 22.126C123.309 22.126 123.283 23.812 122.951 25.599C122.789 26.7351 122.228 27.7764 121.368 28.536C120.627 29.302 119.631 30.426 119.121 31.013C118.406 31.856 118.021 32.086 117.41 32.086C116.733 32.112 116.058 32.1889 115.392 32.316C114.728 32.444 113.298 32.674 112.251 32.827C111.204 33.006 109.62 33.236 108.751 33.363C107.857 33.516 106.376 33.746 105.431 33.874C104.46 34.027 103.056 34.257 102.29 34.385C101.524 34.513 99.455 34.87 97.69 35.151C94.549 35.662 91.152 36.251 86.58 37.066C85.329 37.296 83.72 37.577 83.004 37.704C82.314 37.832 80.884 38.087 79.888 38.291C79.2816 38.4583 78.6521 38.5258 78.024 38.491C78.1823 37.9616 78.3699 37.4415 78.586 36.933C79.352 34.941 79.378 31.851 78.612 30.42C77.897 29.066 77.182 28.453 76.441 28.556C75.624 28.656 75.7 29.373 76.541 29.475C78.073 29.654 79.12 32.54 78.559 35.043C78.099 37.086 77.384 38.643 76.822 38.823C76.286 38.976 63.49 41.53 63.209 41.53C63.009 41.53 62.545 40.049 62.315 38.567C62.085 37.111 62.775 34.072 63.847 31.901C65.0446 29.5804 66.8785 27.649 69.134 26.333C69.951 25.899 70.615 25.439 70.615 25.286C70.615 25.133 70.206 24.826 69.721 24.596C67.499 23.523 67.244 20.765 69.108 17.956C70.2902 16.2921 71.9861 15.0625 73.935 14.456C74.3397 14.2985 74.7767 14.2419 75.2082 14.2908C75.6397 14.3398 76.0528 14.4929 76.412 14.737C78.149 15.631 78.612 16.627 78.404 18.977C78.251 20.944 78.455 21.277 79.145 20.277C79.988 19.102 79.375 16.037 78.123 14.914C76.591 13.56 74.65 13.433 72.223 14.582C67.932 16.549 66.042 21.503 68.469 24.389L69.056 25.104L67.677 26.074C62.646 29.522 60.194 35.166 61.522 40.248C61.685 40.7515 61.771 41.2768 61.777 41.806C61.4072 42.0096 60.998 42.1317 60.577 42.164C58.585 42.496 47.245 45.101 41.116 46.633C39.022 47.169 37.26 47.578 37.234 47.578C37.157 47.478 37.719 42.419 38.077 40.248C38.613 37.056 38.792 36.672 39.584 36.672C40.044 36.672 40.222 36.544 40.222 36.161C40.2306 36.0918 40.2233 36.0216 40.2007 35.9557C40.178 35.8898 40.1407 35.8299 40.0914 35.7806C40.0421 35.7313 39.9822 35.694 39.9163 35.6713C39.8504 35.6487 39.7802 35.6414 39.711 35.65C39.5702 35.6486 39.4322 35.61 39.311 35.5382C39.1899 35.4664 39.0898 35.3639 39.021 35.241C38.921 34.935 40.094 26.583 40.885 21.935C41.013 21.245 41.396 20.862 43.158 19.688C47.985 16.47 52.633 12.026 53.936 9.39598C54.706 7.94724 54.9238 6.26826 54.549 4.67101C53.936 2.85801 51.382 1.27101 47.883 0.559009C44.7983 0.112891 41.6799 -0.0564626 38.565 0.0529973V0.0529973ZM48.142 1.55999C52.05 2.47899 53.505 3.603 53.71 5.902C53.8476 6.86699 53.6492 7.84996 53.148 8.68599C51.999 11.01 48.04 14.458 42.6 17.88L41.5 18.544L41.577 16.144C41.628 14.152 41.551 13.644 41.194 13.284C39.227 11.292 34.349 18.341 28.373 31.877L26.381 36.372L24.619 36.781L22.857 37.164L19.792 35.197C8.75902 28.148 5.46402 25.722 3.21702 23.015C-0.182983 18.929 1.50601 14.255 7.91701 9.99001C14.225 5.80101 25.003 2.379 35.755 1.179C39.8852 0.84176 44.0402 0.969229 48.142 1.55901V1.55999ZM137.326 11.572C136.968 12.262 135.359 17.063 134.593 19.694C133.681 22.6492 133.057 25.6857 132.729 28.761L132.55 30.932L131.528 31.085C130.251 31.285 128.974 31.57 125.22 32.464C124.202 32.7641 123.159 32.9693 122.104 33.077C122.242 32.0497 122.455 31.0339 122.742 30.038C123.38 27.51 123.585 26.999 124.274 26.411C125.48 25.5058 126.793 24.7512 128.182 24.164C128.326 24.6158 128.378 25.0918 128.335 25.564C128.335 26.664 128.435 27.02 128.769 27.147C129.28 27.347 129.918 26.611 130.914 24.593C131.399 23.674 131.782 23.193 131.961 23.293C132.161 23.421 132.191 23.344 132.089 23.038C132.096 22.2876 132.29 21.5507 132.651 20.893C133.826 18.084 137.351 10.882 137.451 10.984C137.531 11.038 137.454 11.315 137.326 11.571V11.572ZM40.735 14.892C40.7039 15.8421 40.61 16.7892 40.454 17.727C40.173 19.31 40.148 19.362 38.768 20.255C37.312 21.174 36.904 21.711 37.368 22.17C37.598 22.4 37.904 22.37 38.619 22.17C38.9428 22.0564 39.2782 21.9792 39.619 21.94C39.645 21.966 39.491 22.962 39.287 24.162C39.083 25.362 38.597 28.402 38.24 30.93L37.55 35.53L36.273 35.581C35.583 35.632 33.413 35.76 31.497 35.913C30.2433 36.067 28.9783 36.1099 27.717 36.041C27.385 35.841 28.279 33.513 30.322 29.222C34.843 19.67 38.648 13.694 40.206 13.694C40.659 13.691 40.736 13.844 40.736 14.891L40.735 14.892ZM130.379 24.571C129.613 26.129 129.102 26.64 129.102 25.822C129.328 24.5832 129.835 23.4126 130.583 22.4C131.324 21.965 131.248 22.808 130.379 24.57V24.571ZM119.779 24.162C120.111 24.698 117.072 27.789 116.638 27.354C116.668 26.8864 116.827 26.4364 117.098 26.054C117.967 24.392 119.317 23.421 119.781 24.162H119.779ZM106.979 25.771C106.609 26.3734 106.112 26.8878 105.523 27.278C105.089 27.508 105.089 27.457 105.344 26.92C105.804 26.052 106.672 25.183 106.927 25.337C106.981 25.3941 107.016 25.4667 107.026 25.5446C107.037 25.6225 107.022 25.7017 106.985 25.771H106.979ZM121.996 30.036C121.536 31.39 121.485 31.436 120.464 31.594C119.877 31.671 119.391 31.671 119.391 31.594C120.234 30.3964 121.24 29.3221 122.379 28.402C122.339 28.9636 122.212 29.5155 122.002 30.038L121.996 30.036ZM121.128 32.59C121.051 32.9396 120.873 33.2591 120.617 33.509C119.677 33.8745 118.701 34.1399 117.706 34.301C117.85 33.8964 118.057 33.517 118.319 33.177C118.983 32.104 119.341 31.926 120.719 31.849C121.39 31.824 121.39 31.849 121.134 32.59H121.128ZM118.881 37.928C118.357 38.9655 117.695 39.9275 116.914 40.788C116.097 41.503 115.969 41.529 115.614 41.171C115.259 40.813 115.231 40.558 115.486 39.358C115.997 36.958 116.252 36.651 118.117 36.166C118.687 36.0063 119.267 35.8867 119.854 35.808C119.6 36.5437 119.276 37.2536 118.887 37.928H118.881ZM37.129 37.494C37.129 37.954 36.874 40.508 36.567 43.164L36.005 47.991L34.728 48.323C34.038 48.502 33.428 48.655 33.4 48.681C33.349 48.681 33.323 48.481 33.323 48.221C33.323 47.021 31.74 44.645 29.569 42.521C28.318 41.321 26.99 40.095 26.581 39.788C25.891 39.252 25.866 39.201 26.275 38.588C27.22 37.158 28.829 36.775 34.55 36.698L37.155 36.672L37.129 37.494ZM25.917 37.545C25.8594 37.8171 25.774 38.0824 25.662 38.337L25.407 39.001L24.641 38.414C23.951 37.903 23.9 37.827 24.309 37.648C24.824 37.468 25.923 37.391 25.923 37.545H25.917ZM22.852 39.665C24.052 40.482 24.538 40.993 24.461 41.248C24.052 42.474 19.481 51.515 18.842 52.383C18.2127 53.2435 17.2828 53.8361 16.237 54.043L14.373 54.681L13.505 53.681C13.0464 53.1414 12.6991 52.5164 12.483 51.842C12.355 51.076 12.483 50.795 13.583 49.39C15.115 47.423 17.644 45.457 19.1 45.099C20.607 44.716 20.939 44.486 20.939 43.799C20.939 43.314 20.786 43.161 20.173 43.109C18.641 42.981 14.81 45.918 12.435 49.06L11.848 49.826L11.948 47.885C12.0095 46.4038 12.4445 44.9621 13.2126 43.694C13.9806 42.426 15.0568 41.3727 16.341 40.632C17.7611 39.7238 19.288 38.9945 20.887 38.461C21.5805 38.7989 22.2404 39.2017 22.858 39.664L22.852 39.665ZM74.627 41.938C73.1053 43.577 71.0314 44.5956 68.804 44.798C66.863 44.926 65.586 44.598 64.769 43.725L64.207 43.112L64.922 42.933C66.889 42.422 75.163 40.558 75.598 40.533C75.98 40.533 75.725 40.865 74.627 41.938ZM27.762 43.624C29.78 45.616 30.776 47.097 31.162 48.681C31.315 49.294 31.213 49.345 29.068 49.932C27.842 50.264 25.368 50.979 23.603 51.515C21.815 52.077 20.334 52.515 20.257 52.515C20.5337 51.7421 20.868 50.9909 21.257 50.268C21.844 49.042 22.943 46.59 23.683 44.777C24.0789 43.6267 24.6289 42.5355 25.318 41.533C26.2133 42.1295 27.0338 42.8311 27.762 43.623V43.624ZM30.52 52.895C29.12 55.142 25.412 57.39 21.326 58.412C18.287 59.178 14.992 59.025 13.281 58.003C12.5644 57.6165 11.9825 57.0208 11.6129 56.2953C11.2433 55.5698 11.1034 54.749 11.212 53.942C11.493 52.18 11.723 52.078 12.489 53.38C12.7632 53.9191 13.1459 54.3958 13.613 54.78C13.843 54.933 13.919 55.061 13.766 55.061C13.4821 55.1352 13.2196 55.2753 13 55.47C12.566 55.828 12.694 55.853 14.66 55.7C15.6747 55.6309 16.6776 55.4423 17.648 55.138C18.108 54.908 21.275 53.963 24.697 53.018C31.363 51.208 31.567 51.208 30.517 52.894L30.52 52.895Z" fill="url(#paint0_linear_211_2)"/><path id="Path 2" fill-rule="evenodd" clip-rule="evenodd" d="M123.705 31.236C123.912 31.2865 124.129 31.2865 124.336 31.236C124.487 31.16 124.361 31.11 124.008 31.11C123.655 31.11 123.528 31.16 123.705 31.236Z" fill="url(#paint1_linear_211_2)"/><path id="Path 3" fill-rule="evenodd" clip-rule="evenodd" d="M86.875 16.352C86.067 16.958 84.25 20.617 83.317 23.443C81.904 27.632 81.4241 31.943 82.1311 33.689C82.8631 35.43 84.705 34.774 87.431 31.822C89.677 29.349 89.298 29.349 86.901 31.797C84.882 33.866 83.646 34.573 83.116 34.043C82.6041 33.0304 82.4106 31.8866 82.561 30.762C82.9027 29.7252 83.3688 28.7337 83.949 27.809C85.6911 24.7583 87.0475 21.5031 87.987 18.118C88.265 16.781 88.265 16.528 87.937 16.2C87.582 15.845 87.481 15.873 86.875 16.352ZM87.708 17.361C87.6004 18.2845 87.3801 19.1912 87.052 20.061C86.0235 22.8842 84.7659 25.6187 83.292 28.237C82.863 28.792 82.863 28.792 83.014 27.707C83.8224 24.124 85.0772 20.6566 86.749 17.386C87.38 16.377 87.704 16.352 87.704 17.361H87.708Z" fill="url(#paint2_linear_211_2)"/><path id="Path 4" fill-rule="evenodd" clip-rule="evenodd" d="M47.442 20.27C46.13 21.658 43.732 28.32 43.101 32.308C42.773 34.453 42.849 36.901 43.252 37.027C43.9019 36.3873 44.4168 35.6235 44.766 34.7811C45.3869 33.5926 46.1238 32.4685 46.966 31.425C47.925 30.441 47.95 30.441 48.303 30.925C48.4484 31.1648 48.5435 31.4316 48.5825 31.7092C48.6215 31.9869 48.6037 32.2695 48.53 32.54C48.303 34.13 48.23 34.231 46.89 35.215C44.366 37.057 43.004 40.136 44.644 40.338C45.578 40.438 46.739 39.152 47.95 36.654C48.934 34.585 48.985 34.5341 50.499 33.8281C53.275 32.5911 53.174 32.566 53.25 34.257C53.326 35.645 53.376 35.721 54.007 35.796C54.562 35.872 54.815 35.6961 55.344 34.8621C55.5885 34.5619 55.7666 34.2133 55.8666 33.8392C55.9665 33.4652 55.9861 33.0742 55.924 32.692C55.8785 32.3152 55.8618 31.9354 55.874 31.556C55.899 31.556 56.328 31.7331 56.808 31.9351C57.8725 32.3507 59.0461 32.3951 60.139 32.061C60.467 31.91 60.239 31.8841 59.382 31.9611C58.272 32.0871 57.918 31.9861 56.429 31.2291L54.738 30.3461L54.132 31.355C53.602 32.289 53.324 32.4651 51.407 33.0961C50.246 33.4961 49.237 33.8281 49.161 33.8281C49.0673 33.4225 49.0503 33.0029 49.111 32.5911C49.237 31.1021 48.859 30.291 48.051 30.291C47.218 30.291 46.133 31.477 44.77 33.9C43.811 35.616 43.609 35.843 43.609 35.238C43.8065 34.369 44.1847 33.5513 44.719 32.838C46.864 29.638 48.757 23.9801 48.605 21.2551C48.527 19.6651 48.227 19.412 47.442 20.27ZM48.3 22.238C47.7381 25.2758 46.7623 28.2223 45.4 30.9951C43.608 34.5281 43.406 33.995 44.719 29.228C45.627 25.998 47.192 21.628 47.697 21.028C48.275 20.321 48.477 20.699 48.3 22.24V22.238ZM55.593 33.064C55.366 34.275 54.76 35.335 54.331 35.335C53.776 35.335 53.852 33.6691 54.482 32.3071C54.982 31.2221 55.012 31.197 55.365 31.676C55.4972 31.8791 55.5859 32.1074 55.6253 32.3465C55.6648 32.5856 55.6541 32.8303 55.594 33.0651L55.593 33.064ZM47.644 35.6381C47.644 36.3951 45.244 39.878 44.717 39.878C43.682 39.878 44.238 38.389 45.954 36.648C47.266 35.34 47.644 35.084 47.644 35.64V35.6381Z" fill="url(#paint3_linear_211_2)"/></g></g><defs><linearGradient id="paint0_linear_211_2" x1="-0.0332184" y1="0.020752" x2="51.3567" y2="96.7184" gradientUnits="userSpaceOnUse"><stop stop-color="white"/><stop offset="1" stop-color="#199EBD"/></linearGradient><linearGradient id="paint1_linear_211_2" x1="123.626" y1="31.11" x2="123.712" y2="31.4251" gradientUnits="userSpaceOnUse"><stop stop-color="white"/><stop offset="1" stop-color="#199EBD"/></linearGradient><linearGradient id="paint2_linear_211_2" x1="81.8082" y1="15.9596" x2="92.2529" y2="19.0267" gradientUnits="userSpaceOnUse"><stop stop-color="white"/><stop offset="1" stop-color="#199EBD"/></linearGradient><linearGradient id="paint3_linear_211_2" x1="42.8958" y1="19.7854" x2="62.3472" y2="32.4688" gradientUnits="userSpaceOnUse"><stop stop-color="white"/><stop offset="1" stop-color="#199EBD"/></linearGradient><clipPath id="clip0_211_2"><rect width="146.322" height="60" fill="white"/></clipPath></defs><style> @keyframes wave { 0% { clip-path: polygon(0 0, 0 0, 0 100%, 0% 100%); } 30% { clip-path: polygon(0 0, 54% 0, 54% 100%, 0 100%); } 60% { clip-path: polygon(0 0, 100% 0, 100% 100%, 0 100%); } 80% { clip-path: polygon(0 0, 100% 0, 100% 100%, 0 100%); } 100% { transform: scale(1.01); } } </style></svg>