<svg width="66" height="699" viewBox="0 0 66 699" fill="none" xmlns="http://www.w3.org/2000/svg"><g id="Path 8 1" clip-path="url(#clip0_213_8)"><path id="clip" style="transform-box: fill-box; transform-origin: center; animation: clip 4s linear infinite alternate;" opacity="0.08" d="M52.4 677.917C52.4074 681.862 51.9551 685.794 51.052 689.634C50.3516 692.931 49.1253 696.093 47.42 699L35.531 693.75C36.9223 691.314 38.002 688.713 38.745 686.008C39.5249 683.335 39.9321 680.567 39.955 677.782C40.0509 676.141 39.8284 674.497 39.3 672.94C39.1633 672.523 38.8998 672.159 38.5463 671.898C38.1928 671.638 37.7669 671.495 37.328 671.488C36.314 671.488 35.5537 672.121 35.047 673.388C34.3295 675.426 33.7748 677.518 33.388 679.644C32.7602 682.808 31.9172 685.926 30.865 688.976C29.9578 691.479 28.4366 693.714 26.441 695.476C24.1131 697.416 21.1372 698.404 18.111 698.241C15.1465 698.266 12.247 697.373 9.811 695.683C7.15257 693.761 5.11088 691.107 3.935 688.045C2.4105 684.114 1.6847 679.919 1.8 675.705C1.7968 672.415 2.15596 669.135 2.871 665.924C3.49521 662.961 4.55505 660.108 6.016 657.456L17.834 662.363C15.593 666.511 14.3614 671.13 14.239 675.843C14.239 680.036 15.253 682.133 17.281 682.133C18.249 682.133 18.9747 681.511 19.458 680.267C20.1404 678.261 20.6604 676.204 21.013 674.115C21.5703 670.948 22.3683 667.828 23.4 664.783C24.2952 662.254 25.8032 659.987 27.789 658.183C29.817 656.316 32.5837 655.383 36.089 655.383C39.0417 655.355 41.9295 656.25 44.35 657.941C46.9958 659.876 49.0344 662.526 50.226 665.579C51.7753 669.503 52.5148 673.7 52.4 677.917ZM12.788 634.091C12.788 627.455 14.2743 622.386 17.247 618.883C20.2197 615.38 24.7933 613.629 30.968 613.63H51.291V628.15H46.314C50.0927 629.95 51.982 633.522 51.982 638.865C52.0586 641.497 51.5264 644.111 50.427 646.503C49.5096 648.466 48.0454 650.122 46.21 651.273C44.4083 652.363 42.3367 652.926 40.231 652.897C38.5641 652.982 36.9039 652.631 35.4136 651.879C33.9232 651.128 32.6541 650.002 31.731 648.611C29.7977 645.754 28.831 641.42 28.831 635.611V629.321C25.8817 629.828 24.407 632.201 24.407 636.441C24.4151 638.199 24.683 639.946 25.202 641.625C25.6638 643.237 26.4002 644.757 27.379 646.118L17.079 651.095C15.6307 648.658 14.5682 646.012 13.929 643.25C13.1771 640.255 12.7939 637.179 12.788 634.091V634.091ZM42.581 634.16C42.5945 633.1 42.2802 632.062 41.681 631.188C41.0169 630.265 40.0685 629.585 38.981 629.252H36.36V633.123C36.36 636.303 37.42 637.893 39.54 637.893C39.9548 637.901 40.366 637.815 40.743 637.642C41.12 637.469 41.4529 637.213 41.717 636.893C42.3292 636.118 42.6365 635.146 42.581 634.16V634.16ZM0 606.855L0 591.233H51.291V606.855H0ZM12.788 567.384C12.788 560.748 14.2743 555.679 17.247 552.176C20.2197 548.673 24.7933 546.922 30.968 546.922H51.291V561.44H46.314C50.0927 563.24 51.982 566.811 51.982 572.154C52.0586 574.786 51.5264 577.4 50.427 579.792C49.5096 581.755 48.0454 583.411 46.21 584.562C44.4083 585.652 42.3367 586.215 40.231 586.186C38.5641 586.271 36.9039 585.92 35.4136 585.168C33.9232 584.417 32.6541 583.291 31.731 581.9C29.7977 579.043 28.831 574.709 28.831 568.9V562.61C25.8817 563.117 24.407 565.49 24.407 569.73C24.4151 571.488 24.683 573.235 25.202 574.914C25.6638 576.526 26.4002 578.046 27.379 579.407L17.079 584.384C15.6324 581.946 14.5715 579.3 13.934 576.538C13.1808 573.545 12.796 570.471 12.788 567.384V567.384ZM42.581 567.45C42.5945 566.39 42.2802 565.352 41.681 564.478C41.0169 563.555 40.0685 562.875 38.981 562.542H36.36V566.413C36.36 569.593 37.42 571.183 39.54 571.183C39.9548 571.191 40.366 571.105 40.743 570.932C41.12 570.759 41.4529 570.503 41.717 570.183C42.3292 569.408 42.6365 568.436 42.581 567.45ZM12.788 513.877C12.788 509.222 14.1937 505.478 17.005 502.644C19.8163 499.81 24.056 498.393 29.724 498.393H51.291V514.019H32.42C28.0867 514.019 25.92 515.563 25.92 518.65C25.892 519.45 26.0418 520.246 26.3586 520.981C26.6754 521.716 27.1513 522.372 27.752 522.901C28.9733 523.984 30.8973 524.525 33.524 524.525H51.291L51.291 540.15H0L0 524.528H16.521C14.0088 521.559 12.6796 517.768 12.788 513.881V513.877ZM42.858 437.424V455.815L51.291 459.064V475.65L2.9 454.502L2.9 438.465L51.288 417.313V434.179L42.858 437.424ZM31.107 441.921L18.941 446.621L31.107 451.321V441.921ZM12.789 389.938C12.7609 386.728 13.5838 383.568 15.174 380.779C16.7868 377.968 19.1582 375.669 22.017 374.143C25.1959 372.457 28.7534 371.612 32.351 371.689C35.9595 371.615 39.5276 372.459 42.72 374.143C45.5935 375.661 47.9783 377.962 49.598 380.779C51.1882 383.568 52.0111 386.728 51.983 389.938C51.983 394.593 50.7163 398.049 48.183 400.307H51.294L51.294 415.17H0L0 399.55H16.037C13.871 397.336 12.788 394.132 12.788 389.939L12.789 389.938ZM39.816 393.671C39.8378 392.834 39.6722 392.002 39.3313 391.238C38.9905 390.473 38.483 389.794 37.846 389.25C36.2885 388.015 34.3297 387.4 32.346 387.522C30.3756 387.398 28.4298 388.014 26.89 389.25C26.2613 389.799 25.7617 390.481 25.427 391.245C25.0923 392.01 24.9308 392.839 24.954 393.674C24.9307 394.508 25.0922 395.338 25.4269 396.103C25.7616 396.867 26.2612 397.549 26.89 398.098C28.4311 399.335 30.3789 399.951 32.351 399.826C34.3347 399.948 36.2935 399.333 37.851 398.098C38.4879 397.553 38.9949 396.873 39.3349 396.107C39.6749 395.341 39.8393 394.509 39.816 393.671V393.671ZM13.48 325.444H51.291V340.306H47.7C49.1125 341.664 50.2096 343.316 50.914 345.145C51.634 347.02 51.9972 349.013 51.985 351.021C51.985 355.814 50.522 359.662 47.596 362.565C44.67 365.468 40.2567 366.92 34.356 366.92H13.48L13.48 351.298H31.66C34.2407 351.298 36.084 350.883 37.19 350.054C37.7447 349.625 38.1859 349.067 38.4751 348.428C38.7643 347.79 38.8927 347.09 38.849 346.39C38.8574 345.658 38.6964 344.934 38.3786 344.275C38.0608 343.616 37.5948 343.039 37.017 342.59C35.7957 341.576 33.8717 341.069 31.245 341.069H13.48L13.48 325.444ZM38.987 257.079H51.287L51.287 297.31H2.9L2.9 257.977H15.2L15.2 281.277H20.868L20.868 260.816H32.627V281.273H38.987V257.079ZM0 251.272L0 235.65H51.291V251.272H0ZM25.438 229.083V208.35H37.19V229.083H25.438ZM51.291 158.091L29.24 158.229L46.94 168.736V175.925L30 186.432H51.291V201.294H2.9L2.9 187.884L28.687 172.123L2.9 156.777L2.9 143.367L51.288 143.229L51.291 158.091ZM12.791 118.897C12.791 112.261 14.2773 107.192 17.25 103.689C20.2227 100.186 24.7963 98.435 30.971 98.435H51.291V112.95H46.314C50.0927 114.75 51.982 118.321 51.982 123.664C52.0586 126.296 51.5264 128.91 50.427 131.302C49.5096 133.265 48.0454 134.921 46.21 136.072C44.4083 137.162 42.3367 137.725 40.231 137.696C38.5641 137.781 36.9039 137.43 35.4136 136.678C33.9232 135.927 32.6541 134.801 31.731 133.41C29.7977 130.553 28.831 126.219 28.831 120.41V114.12C25.8817 114.627 24.407 117 24.407 121.24C24.4151 122.998 24.683 124.745 25.202 126.424C25.6637 128.036 26.4002 129.556 27.379 130.917L17.079 135.894C15.6324 133.457 14.5715 130.81 13.934 128.048C13.181 125.055 12.7961 121.982 12.788 118.896L12.791 118.897ZM42.584 118.966C42.5975 117.906 42.2832 116.868 41.684 115.994C41.0198 115.071 40.0713 114.391 38.984 114.059H36.36V117.93C36.36 121.11 37.42 122.7 39.54 122.7C39.9548 122.708 40.366 122.622 40.743 122.449C41.12 122.276 41.4529 122.02 41.717 121.7C42.3297 120.925 42.637 119.952 42.581 118.965L42.584 118.966ZM13.484 48.734H43.757C50.9463 48.734 56.3497 50.727 59.967 54.713C63.5843 58.699 65.393 64.378 65.393 71.75C65.4181 75.3113 65.0118 78.8625 64.183 82.326C63.5052 85.2929 62.3245 88.1217 60.692 90.69L50.047 85.436C51.2632 83.7391 52.1767 81.8444 52.747 79.836C53.414 77.733 53.7635 75.5422 53.784 73.336C53.784 70.2027 53.1173 67.9213 51.784 66.492C51.0089 65.7417 50.0841 65.1636 49.0701 64.7955C48.0562 64.4274 46.9759 64.2777 45.9 64.356H45.208C47.8807 66.706 49.217 70.1853 49.217 74.794C49.2363 77.9419 48.4636 81.044 46.97 83.815C45.4849 86.5902 43.2595 88.8994 40.541 90.486C37.6375 92.1759 34.3259 93.0369 30.967 92.975C27.6188 93.0398 24.3177 92.1785 21.428 90.486C18.7249 88.8913 16.5128 86.5833 15.034 83.815C13.5404 81.044 12.7677 77.9419 12.787 74.794C12.787 69.6327 14.446 65.8993 17.764 63.594H13.48L13.484 48.734ZM37.051 70.65C37.1071 68.9546 36.4994 67.3042 35.357 66.05C34.8005 65.4467 34.1202 64.9706 33.3627 64.6544C32.6052 64.3382 31.7883 64.1893 30.968 64.218C30.1524 64.1876 29.3401 64.3358 28.5878 64.6523C27.8356 64.9687 27.1616 65.4458 26.613 66.05C25.4905 67.3139 24.8966 68.9607 24.954 70.65C24.8893 72.3604 25.4831 74.0304 26.613 75.316C27.1616 75.9203 27.8356 76.3974 28.5878 76.7138C29.3401 77.0303 30.1524 77.1784 30.968 77.148C31.7913 77.1755 32.6107 77.0228 33.3689 76.7004C34.127 76.3781 34.8055 75.894 35.357 75.282C36.4958 74.013 37.1024 72.3543 37.051 70.65V70.65ZM0 0H51.291V14.862H48.181C50.7143 17.12 51.981 20.5764 51.981 25.231C52.0103 28.4407 51.1888 31.6009 49.6 34.39C47.9803 37.2074 45.5955 39.5082 42.722 41.026C39.529 42.7102 35.9602 43.5547 32.351 43.48C28.7534 43.5572 25.1959 42.7123 22.017 41.026C19.1582 39.5003 16.7868 37.2006 15.174 34.39C13.5838 31.6013 12.7609 28.4411 12.789 25.231C12.789 21.0377 13.872 17.8347 16.038 15.622H0L0 0ZM39.816 21.5C39.8382 20.6624 39.6728 19.8304 39.332 19.0649C38.9911 18.2995 38.4834 17.62 37.846 17.076C36.2885 15.8415 34.3297 15.226 32.346 15.348C30.3739 15.2228 28.4261 15.8392 26.885 17.076C26.2562 17.6252 25.7566 18.3065 25.4219 19.0714C25.0872 19.8362 24.9257 20.6655 24.949 21.5C24.9258 22.3345 25.0873 23.1639 25.422 23.9286C25.7567 24.6934 26.2563 25.3748 26.885 25.924C28.4277 27.1614 30.3774 27.777 32.351 27.65C34.3347 27.772 36.2935 27.1566 37.851 25.922C38.4875 25.3776 38.9943 24.6979 39.3342 23.9324C39.6742 23.167 39.8388 22.3353 39.816 21.498V21.5Z" fill="#199EBD"/></g><defs><clipPath id="clip0_213_8"><rect width="65.393" height="699" fill="white"/></clipPath></defs><style>@keyframes clip { 0% { clip-path: polygon(0 100%, 100% 100%, 100% 100%, 0 100%); } 30% { clip-path: polygon(0 100%, 100% 100%, 100% 46%, 0 46%); } 60% { clip-path: polygon(0 100%, 100% 100%, 100% 0, 0 0); } 80% { clip-path: polygon(0 100%, 100% 100%, 100% 0, 0 0); transform: translateY(-2px) scale(1.0); } 100% { transform: translateY(2px) scale(1.01); }}</style></svg>